PathFileType	4	(X/Y/Z)	Patient4_TMGait_0pt6_02_right_21.trc.trc
DataRate	CameraRate	NumFrames	NumMarkers	Units	OrigDataRate	OrigDataStartFrame	OrigNumFrames
84.848484848485	84.848484848485	4	33	mm	84.848484848485	18	       141
Frame#	Time	Sacral			L.Shoulder			Chest			R.Shoulder			Neck			R.ASIS			L.ASIS			R.Thigh.Superior			R.Thigh.Lateral			R.Thigh.Inferior			R.Patella			L.Thigh.Superior			L.Thigh.Lateral			L.Thigh.Inferior			L.Patella			L.Shank.Superior			L.Shank.Lateral			L.Shank.Inferior			R.Shank.Superior			R.Shank.Lateral			R.Shank.Inferior			R.Heel			R.Midfoot.Superior			R.Midfoot.Lateral			R.Toe			L.Heel			L.Midfoot.Lateral			L.Midfoot.Superior			L.Toe			L.Elbow			L.Wrist			R.Elbow			R.Wrist			
		X1	Y1	Z1	X2	Y2	Z2	X3	Y3	Z3	X4	Y4	Z4	X5	Y5	Z5	X6	Y6	Z6	X7	Y7	Z7	X8	Y8	Z8	X9	Y9	Z9	X10	Y10	Z10	X11	Y11	Z11	X12	Y12	Z12	X13	Y13	Z13	X14	Y14	Z14	X15	Y15	Z15	X16	Y16	Z16	X17	Y17	Z17	X18	Y18	Z18	X19	Y19	Z19	X20	Y20	Z20	X21	Y21	Z21	X22	Y22	Z22	X23	Y23	Z23	X24	Y24	Z24	X25	Y25	Z25	X26	Y26	Z26	X27	Y27	Z27	X28	Y28	Z28	X29	Y29	Z29	X30	Y30	Z30	X31	Y31	Z31	X32	Y32	Z32	X33	Y33	Z33	

18	25.420357142857	814.961517974449	1014.416433828456	429.294293849511	1029.141726731768	1438.745974234197	263.720192294575	1113.251954949951	1357.891429899405	429.258713437102	1021.854821283289	1437.141804394083	595.582860463874	1017.898740945759	1496.292773962379	415.724416667276	1033.074880915543	948.721994198055	562.125417349808	1033.959071672434	958.409129324484	286.567427048445	1106.563270481719	773.216491847367	534.666720752077	1059.873744960064	654.617295215232	605.774580148054	1144.911966270549	615.091173771778	523.303331977639	1178.431701987239	535.280505235524	540.222831150387	1049.475511266153	737.120799255888	320.990016422391	943.263272094057	635.513819097812	255.973349262984	1006.563983450543	546.819218524093	324.812244786690	993.645826847675	479.036132371876	334.622422060827	962.912504950659	410.896559088008	325.921221801828	863.555809963521	304.101671626971	278.626280007709	905.340082079912	189.954615449759	349.617898396948	1165.893255065624	447.187291549396	550.536391006129	1119.570783177336	330.487011535541	613.861940473519	1191.934975271343	248.245235349582	559.681121310893	1107.773887504740	57.560022512336	528.599563862045	1268.667991569484	136.001099511926	569.389307784599	1193.607757056518	55.270510720480	600.443706572883	1394.955815088223	102.456334142642	590.851882713916	769.510958045885	39.642342034374	399.704925030613	836.494334226281	36.117498288173	313.366008444905	922.588030520089	96.124578420497	334.520134412698	1047.690657987266	41.163502946231	294.490302779132	1095.008652008460	1119.569457633750	102.946990889136	1345.818525002348	1075.315944407687	136.401360209774	839.994648580729	1147.596218519514	703.197994811165	770.708956678043	895.532671460073	712.136205828107	
19	25.432142857143	816.349467429540	1012.949842879817	430.882113137306	1028.350306118345	1437.683685048144	264.934661686051	1112.812651082738	1357.550164918981	430.596523679235	1021.085935744563	1436.639992861364	596.740290020179	1016.854079831020	1495.417064951266	416.793691207393	1034.140671761410	947.245544404599	563.873647327517	1035.524170351032	957.531392451721	288.551186510042	1105.519324388066	769.318374877150	537.319412056614	1055.894778847518	650.972757222302	606.918704102404	1140.978523769386	610.913984315577	525.004111210845	1172.479805239097	531.451261685155	540.993810612443	1049.117155873550	735.422106825133	322.342991537542	941.727753846418	634.860309046992	257.074659970401	1004.028158484509	545.435950853846	325.677788097699	990.365043020461	477.753180196329	335.456231703165	959.007833030920	409.933327953840	326.607482652877	858.642558608256	304.149945716954	279.033106973091	899.143204886116	189.484143921283	349.862378136695	1160.740498226734	443.255180211424	550.984695729553	1114.271742344334	326.049688601271	612.945799059428	1187.569039849015	244.545183056218	558.916304427774	1104.509409546108	54.202884655220	525.943183300153	1264.925417002077	132.423417958242	568.136503912491	1189.718535687211	51.837903543302	598.417077727260	1390.964215288222	98.902382473820	590.246732177393	762.383761534651	39.636496693283	399.666642207491	829.393781283983	36.071918667443	313.386405738722	915.500041049946	96.069915495935	334.553220200915	1040.578558410106	41.017642076949	294.477335705462	1095.328487911931	1118.281475007815	105.176591379685	1346.467734864722	1078.780202872432	139.522174493532	839.022183039447	1147.374284015221	703.630896889041	769.816458587243	895.216787238248	712.204774731292	
20	25.443928571429	817.876197044334	1011.376351723759	432.658326277361	1027.426693786992	1436.503389714336	266.240317926363	1112.353417920856	1357.203996984680	432.023041513094	1020.245572829544	1436.050288752935	598.014636801374	1015.665390719854	1494.454543684324	417.959631487503	1035.401505587528	945.653333381429	565.749746864283	1037.256074949241	956.584143898964	290.710001871329	1105.047824575340	765.660558530127	539.987540331560	1052.334207714035	647.363328824415	607.704796185689	1137.743491227781	606.987671525022	526.589583418902	1166.953522324869	527.440934624502	541.418048994914	1048.887393287823	733.637405582141	323.738950578807	940.275392674750	634.160793627837	258.283736179619	1001.650057265607	543.988662662824	326.559984041644	987.284831385577	476.359278973926	336.298760582259	955.220891521637	408.902730861884	327.313183018921	853.754745316070	304.209488813666	279.471549893520	892.954641849057	188.987512626059	350.090612854727	1155.474165490491	438.997496609742	551.013839933249	1108.029952929164	321.701665235947	611.697790749706	1181.435707703538	240.384693482529	557.750378761848	1097.821008186441	51.365128317108	523.278968762578	1258.398078940692	127.938477662159	566.279163233007	1182.458171015139	48.481050133512	596.303774276254	1383.934512438473	93.456350641638	589.078585497311	755.230449980340	39.574075559523	399.608043581561	822.287148954072	35.974763240141	313.397432567276	908.398976257111	96.001552030807	334.565302783075	1033.477863006894	40.879399198263	294.448686166454	1095.273010908437	1116.677503136990	107.596474653485	1346.627800479633	1081.084800245552	142.720224508833	838.914307838060	1146.351613730441	704.278160681615	770.632559573833	893.856487058276	712.423037850966	
21	25.455714285714	819.497187904595	1009.738050486648	434.598121318536	1026.424411925581	1435.218693607893	267.649778303444	1111.909913989814	1356.836977438714	433.549182863772	1019.380431211455	1435.370322763787	599.423440914451	1014.393617794815	1493.422172003193	419.239349384636	1036.829625980383	943.984410102851	567.740549563866	1039.103820367815	955.576627543999	293.000933798933	1105.097827891780	762.228547367102	542.634955534041	1049.172003147101	643.854830222747	608.184136072832	1135.127844263583	603.319899903288	528.039266847784	1161.841703922713	523.341227705168	541.480568905572	1048.781350729244	731.803592551772	325.144968883605	938.922013245594	633.418083149720	259.596948210917	999.485963230270	542.495114085327	327.454426914099	984.491007095584	474.844200651644	337.132574047806	951.607030650642	407.800369448042	328.038200087639	848.927672468275	304.295325153828	279.952166689961	886.801634628427	188.470284827636	350.299808292043	1150.213917186918	434.555178742520	550.647967211269	1101.233654184108	317.493624747111	610.249959546609	1174.029873426483	235.901659646581	556.236315939570	1088.494925059606	48.941330415508	520.791179156437	1249.793805525262	122.842416835735	563.886734001127	1172.689959386229	45.302076023738	594.227614241686	1374.692669757386	86.641499852742	587.311581031917	748.048895332599	39.483450770177	399.520588835408	815.175483284409	35.833044280540	313.393748899196	901.298441927671	95.917872294961	334.548194533632	1026.395496852151	40.744162979122	294.399096583784	1094.824444313610	1114.754164831961	110.200234627315	1346.326203510056	1082.215965478952	145.980743437575	839.663965237876	1144.562672573146	705.175882568861	773.130266893971	891.507581880330	712.811429462643	
